<svg xmlns="http://www.w3.org/2000/svg" viewBox="0 0 60.25 55.03"><defs><style>.cls-1{fill:#fff;stroke:#fff;stroke-miterlimit:10;stroke-width:0.25px;}</style></defs><title>アセット 3</title><g id="レイヤー_2" data-name="レイヤー 2"><g id="レイヤー_1-2" data-name="レイヤー 1"><circle class="cls-1" cx="30.13" cy="29.47" r="9"/><path class="cls-1" d="M.12.12V54.91H15.86c-2.5-.4-3.82-2.71-4.74-5.44-1-2.95-2-15-3.91-28.64a.49.49,0,0,0-.6-.37,12.3,12.3,0,0,0-2.49,1c-2,1-4-2-2-4,0,0,25-15,28-15s26,14,28,15,1,4-1,4a16.93,16.93,0,0,1-3.37-.86.48.48,0,0,0-.56.41c-2,13.27-3,21.37-4.07,28.45a7,7,0,0,1-5,5.44h16V.12Z"/></g></g></svg>