<svg xmlns="http://www.w3.org/2000/svg" viewBox="0 0 58.17 52.68"><defs><style>.cls-1{fill:#fff;stroke:#fff;stroke-miterlimit:10;stroke-width:0.25px;}</style></defs><title>アセット 4</title><g id="レイヤー_2" data-name="レイヤー 2"><g id="レイヤー_1-2" data-name="レイヤー 1"><path class="cls-1" d="M43,52.56H14.69c-2.5-.39-3.83-2.7-4.74-5.44C9,44.17,8,32.12,6,18.48a.49.49,0,0,0-.6-.37,12.3,12.3,0,0,0-2.49,1c-2,1-4-2-2-4,0,0,25-15,28-15s26,14,28,15,1,4-1,4a16.94,16.94,0,0,1-3.37-.85.47.47,0,0,0-.56.4C50,32,49,40,48,47.12A7,7,0,0,1,43,52.56ZM29,18.12a9,9,0,1,0,9,9A9,9,0,0,0,29,18.12Z"/></g></g></svg>