<svg xmlns="http://www.w3.org/2000/svg" viewBox="0 0 273.5 274.82"><defs><style>.cls-1{fill:#fff;stroke:#fff;stroke-miterlimit:10;stroke-width:0.5px;}</style></defs><title>reply</title><g id="レイヤー_2" data-name="レイヤー 2"><g id="レイヤー_1-2" data-name="レイヤー 1"><path class="cls-1" d="M.25,108.25c0-66,47-108,104-108h64c63,0,105,49,105,108,0,47-24,76-60.5,100.5-31.67,21.26-74,49.95-90,61-6.5,4.5-18.5,9.5-18.5-3.5v-57C61.25,209.25.25,179.25.25,108.25Zm113,82c6,0,9,4,9,9v47c25.4-16.93,65-43,84-56,35-24,48-57,48-83,0-57-49-90-87-90h-66c-34,0-82,36-82,90C19.25,162.25,59.25,190.25,113.25,190.25Z"/></g></g></svg>