<svg xmlns="http://www.w3.org/2000/svg" viewBox="0 0 373.4 258.92"><defs><style>.cls-1{fill:#fff;stroke:#fff;stroke-miterlimit:10;stroke-width:0.5px;}</style></defs><title>retweet</title><g id="レイヤー_2" data-name="レイヤー 2"><g id="レイヤー_1-2" data-name="レイヤー 1"><path class="cls-1" d="M128.2,59.46c10,10-5,26-15,16-8-8-24-23-38-37v161c0,18,15,38,35,38h93c15.08,0,15.08,21,0,21h-91c-30,0-56-20-56-59v-162c-14,14-28,28-39,38-9.42,8.56-23-5-14-14C13.48,51.18,46.1,17.69,63,1.53a4.61,4.61,0,0,1,6.41,0C81,12.93,119.68,50.94,128.2,59.46ZM304,257.35a4.61,4.61,0,0,0,6.41,0c16.86-16.16,49.48-49.65,59.76-59.93,9-9-4.58-22.56-14-14-11,10-25,24-39,38v-162c0-39-26-59-56-59h-91c-15.07,0-15.07,21,0,21h93c20,0,35,20,35,38v161c-14-14-30-29-38-37-10-10-25,6-15,16C253.72,208,292.46,246,304,257.35Z"/></g></g></svg>